<svg width="150" height="150" viewBox="0 0 150 150" fill="none" xmlns="http://www.w3.org/2000/svg">
<path d="M56.1136 75.3587C57.7277 76.2242 59.5472 76.6787 61.3977 76.6787C63.2481 76.6787 65.0676 76.2242 66.6818 75.3587C69.1837 74.079 71.9716 73.3959 74.8086 73.3675C77.6456 73.3391 80.4479 73.9663 82.9772 75.1956C81.0541 71.2652 77.9995 67.9406 74.1714 65.6115C70.3433 63.2823 65.9004 62.0453 61.3636 62.0453C56.8267 62.0453 52.3838 63.2823 48.5558 65.6115C44.7277 67.9406 41.6731 71.2652 39.7499 75.1956C42.2897 73.9606 45.1037 73.3305 47.9526 73.3588C50.8016 73.3872 53.6013 74.0733 56.1136 75.3587ZM37.4999 84.7826C37.4999 90.8365 40.0141 96.6424 44.4894 100.923C48.9647 105.204 55.0345 107.609 61.3636 107.609C67.6926 107.609 73.7624 105.204 78.2377 100.923C82.713 96.6424 85.2272 90.8365 85.2272 84.7826C85.2272 81.5217 85.8408 83.9022 80.284 81.163C69.8863 76.3043 66.8181 87.6848 53.0113 81.163C51.3889 80.3037 49.5647 79.8529 47.7102 79.8529C45.8556 79.8529 44.0315 80.3037 42.409 81.163C37.1249 83.7717 37.4999 81.5217 37.4999 84.7826Z" fill="#656565"/>
<path d="M96.2728 97.826C99.3611 90.2583 99.6722 81.912 97.1553 74.1531C94.6383 66.3942 89.4424 59.6823 82.4179 55.116C75.3934 50.5498 66.9565 48.3996 58.488 49.0174C50.0195 49.6352 42.0211 52.9844 35.8018 58.5168C29.5826 64.0492 25.5109 71.4372 24.2532 79.4714C22.9955 87.5057 24.6264 95.7104 28.8788 102.743C33.1312 109.775 39.7533 115.218 47.6612 118.181C55.5691 121.144 64.2945 121.452 72.4091 119.054C71.6624 116.959 71.4063 114.733 71.6591 112.533C64.9585 114.855 57.6215 114.874 50.9078 112.586C44.1941 110.298 38.5225 105.846 34.8669 99.9939C31.2113 94.1418 29.7996 87.2549 30.8742 80.5156C31.9488 73.7763 35.4428 67.6051 40.7561 63.0615C46.0695 58.5179 52.8708 55.8854 59.9923 55.6159C67.1138 55.3464 74.1112 57.4567 79.7833 61.5846C85.4553 65.7124 89.448 71.6003 91.076 78.2373C92.7039 84.8743 91.8654 91.8464 88.7046 97.9565L96.2728 97.826Z" fill="#656565"/>
<path d="M75.8864 124.826C66.4479 127.956 56.1807 127.944 46.7501 124.792C37.3196 121.64 29.279 115.533 23.9325 107.462C18.5859 99.3901 16.2472 89.8275 17.2955 80.3249C18.3439 70.8224 22.7179 61.9373 29.708 55.111C36.6981 48.2846 45.8943 43.9174 55.8049 42.7178C65.7155 41.5181 75.7592 43.5564 84.3067 48.5019C92.8543 53.4474 99.4043 61.0102 102.894 69.9633C106.385 78.9165 106.61 88.735 103.534 97.8261H122.727V32.6087H0V130.435C0 133.029 1.07751 135.518 2.9955 137.352C4.91349 139.187 7.51483 140.217 10.2273 140.217H71.5909C71.5909 137.686 72.207 135.19 73.3904 132.926C74.5739 130.662 76.2921 128.693 78.4091 127.174C77.4818 126.481 76.636 125.694 75.8864 124.826ZM88.6364 136.957H146.591C147.495 136.957 148.362 136.613 149.002 136.001C149.641 135.39 150 134.56 150 133.696C150 132.831 149.641 132.001 149.002 131.39C148.362 130.778 147.495 130.435 146.591 130.435C82.4659 130.435 88.6364 130.435 86.7614 130.435C84.5766 130.84 82.5897 131.917 81.1023 133.5C79.3207 135.316 78.3539 137.728 78.4091 140.217C78.4091 142.812 79.4866 145.3 81.4046 147.135C83.3226 148.969 85.9239 150 88.6364 150H146.591C147.495 150 148.362 149.656 149.002 149.045C149.641 148.433 150 147.604 150 146.739C150 145.874 149.641 145.045 149.002 144.433C148.362 143.822 147.495 143.478 146.591 143.478H88.6364C87.7322 143.478 86.8651 143.135 86.2258 142.523C85.5864 141.912 85.2273 141.082 85.2273 140.217C85.2273 139.353 85.5864 138.523 86.2258 137.912C86.8651 137.3 87.7322 136.957 88.6364 136.957ZM122.727 9.78261C122.727 7.1881 121.65 4.69985 119.732 2.86526C117.814 1.03066 115.212 0 112.5 0H10.2273C7.51483 0 4.91349 1.03066 2.9955 2.86526C1.07751 4.69985 0 7.1881 0 9.78261V26.087H122.727V9.78261ZM17.0455 13.663C16.9417 14.1621 16.7174 14.631 16.3903 15.0322C16.0632 15.4335 15.6426 15.756 15.1619 15.9739C14.6812 16.1918 14.1539 16.2991 13.6221 16.2872C13.0904 16.2753 12.5689 16.1446 12.0994 15.9054C11.6299 15.6662 11.2254 15.3253 10.9183 14.9099C10.6112 14.4944 10.41 14.016 10.3307 13.5129C10.2515 13.0098 10.2965 12.4959 10.462 12.0124C10.6275 11.5289 10.9091 11.0891 11.2841 10.7283C11.8003 10.2316 12.47 9.90704 13.194 9.80272C13.918 9.6984 14.658 9.81983 15.3042 10.149C15.9505 10.4782 16.4688 10.9977 16.7824 11.6306C17.096 12.2635 17.1882 12.9761 17.0455 13.663ZM29.7614 15.3587C29.4435 15.667 29.0653 15.9124 28.6483 16.0809C28.2312 16.2494 27.7836 16.3377 27.3309 16.3407C26.8782 16.3438 26.4294 16.2615 26.0099 16.0986C25.5905 15.9357 25.2087 15.6953 24.8864 15.3913C24.564 15.0873 24.3075 14.7255 24.1313 14.3266C23.9551 13.9277 23.8628 13.4995 23.8597 13.0665C23.8533 12.192 24.2103 11.3509 24.8523 10.7283C25.4942 10.1142 26.3649 9.76927 27.2727 9.76927C28.1806 9.76927 29.0512 10.1142 29.6932 10.7283C30.3351 11.3423 30.6958 12.1751 30.6958 13.0435C30.6958 13.9119 30.3351 14.7447 29.6932 15.3587H29.7614ZM37.5 13.0435C37.5 12.1786 37.8592 11.3492 38.4985 10.7377C39.1378 10.1262 40.0049 9.78261 40.9091 9.78261C41.8132 9.78261 42.6804 10.1262 43.3197 10.7377C43.959 11.3492 44.3182 12.1786 44.3182 13.0435C44.3182 13.9083 43.959 14.7377 43.3197 15.3493C42.6804 15.9608 41.8132 16.3043 40.9091 16.3043C40.0049 16.3043 39.1378 15.9608 38.4985 15.3493C37.8592 14.7377 37.5 13.9083 37.5 13.0435ZM109.091 16.3043H75C74.0959 16.3043 73.2287 15.9608 72.5894 15.3493C71.9501 14.7377 71.5909 13.9083 71.5909 13.0435C71.5909 12.1786 71.9501 11.3492 72.5894 10.7377C73.2287 10.1262 74.0959 9.78261 75 9.78261H109.091C109.995 9.78261 110.862 10.1262 111.502 10.7377C112.141 11.3492 112.5 12.1786 112.5 13.0435C112.5 13.9083 112.141 14.7377 111.502 15.3493C110.862 15.9608 109.995 16.3043 109.091 16.3043Z" fill="#656565"/>
<path d="M146.591 117.391H88.6363C87.7321 117.391 86.865 117.048 86.2257 116.436C85.5864 115.825 85.2272 114.995 85.2272 114.131C85.2272 113.266 85.5864 112.436 86.2257 111.825C86.865 111.213 87.7321 110.87 88.6363 110.87H146.591C147.495 110.87 148.362 110.526 149.001 109.915C149.641 109.303 150 108.474 150 107.609C150 106.744 149.641 105.915 149.001 105.303C148.362 104.691 147.495 104.348 146.591 104.348H88.6363C86.5921 104.374 84.6028 104.985 82.9252 106.102C81.2476 107.22 79.9587 108.793 79.2248 110.618C78.4909 112.443 78.3457 114.437 78.808 116.342C79.2702 118.246 80.3187 119.975 81.8181 121.304C85.6022 124.924 84.6477 123.913 146.591 123.913C147.495 123.913 148.362 123.57 149.001 122.958C149.641 122.347 150 121.517 150 120.652C150 119.787 149.641 118.958 149.001 118.346C148.362 117.735 147.495 117.391 146.591 117.391Z" fill="#656565"/>
</svg>
