<svg width="23" height="22" viewBox="0 0 23 22" fill="none" xmlns="http://www.w3.org/2000/svg">
<path d="M20.9497 0H2.19482C1.33545 0 0.637207 0.708008 0.637207 1.57715V20.2979C0.637207 21.167 1.33545 21.875 2.19482 21.875H20.9497C21.8091 21.875 22.5122 21.167 22.5122 20.2979V1.57715C22.5122 0.708008 21.8091 0 20.9497 0ZM7.24853 18.75H4.00635V8.31055H7.25342V18.75H7.24853ZM5.62744 6.88477C4.5874 6.88477 3.74756 6.04004 3.74756 5.00488C3.74756 3.96973 4.5874 3.125 5.62744 3.125C6.6626 3.125 7.50732 3.96973 7.50732 5.00488C7.50732 6.04492 6.66748 6.88477 5.62744 6.88477ZM19.4019 18.75H16.1597V13.6719C16.1597 12.4609 16.1353 10.9033 14.4751 10.9033C12.7856 10.9033 12.5269 12.2217 12.5269 13.584V18.75H9.28467V8.31055H12.395V9.73633H12.439C12.8735 8.91602 13.9331 8.05176 15.5103 8.05176C18.7915 8.05176 19.4019 10.2148 19.4019 13.0273V18.75Z" fill="#656565"/>
</svg>
