<svg width="120" height="140" viewBox="0 0 120 140" fill="none" xmlns="http://www.w3.org/2000/svg">
<path d="M105 19.9732H91.575C85.94 8.17877 73.925 -0.00891113 60 -0.00891113C46.075 -0.00891113 34.06 8.17877 28.425 19.9732H15C6.73 19.9732 0 26.6972 0 34.9598V124.879C0 133.142 6.73 139.866 15 139.866H105C113.27 139.866 120 133.142 120 124.879V34.9598C120 26.6972 113.27 19.9732 105 19.9732ZM60 9.98216C73.785 9.98216 85 21.1871 85 34.9598C85 48.7325 73.785 59.9375 60 59.9375C46.215 59.9375 35 48.7325 35 34.9598C35 21.1871 46.215 9.98216 60 9.98216ZM100 117.386C100 118.765 98.88 119.884 97.5 119.884H22.5C21.12 119.884 20 118.765 20 117.386V87.413C20 86.0342 21.12 84.9152 22.5 84.9152H97.5C98.88 84.9152 100 86.0342 100 87.413V117.386Z" fill="#656565"/>
</svg>
