<svg width="170" height="178" viewBox="0 0 170 178" fill="none" xmlns="http://www.w3.org/2000/svg">
<path d="M132.812 66.3844H26.5625C25.1535 66.3844 23.8023 65.8015 22.806 64.7641C21.8097 63.7266 21.25 62.3195 21.25 60.8523V33.1922C21.25 31.725 21.8097 30.3179 22.806 29.2805C23.8023 28.243 25.1535 27.6602 26.5625 27.6602H132.812C134.221 27.6602 135.573 28.243 136.569 29.2805C137.565 30.3179 138.125 31.725 138.125 33.1922V60.8523C138.125 62.3195 137.565 63.7266 136.569 64.7641C135.573 65.8015 134.221 66.3844 132.812 66.3844ZM31.875 55.3203H127.5V38.7242H31.875V55.3203Z" fill="#656565"/>
<path d="M111.562 49.7882C110.154 49.7882 108.802 49.2054 107.806 48.1679C106.81 47.1305 106.25 45.7234 106.25 44.2562V22.1281C106.25 20.6609 106.81 19.2538 107.806 18.2164C108.802 17.1789 110.154 16.5961 111.562 16.5961C112.971 16.5961 114.323 17.1789 115.319 18.2164C116.315 19.2538 116.875 20.6609 116.875 22.1281V44.2562C116.875 45.7234 116.315 47.1305 115.319 48.1679C114.323 49.2054 112.971 49.7882 111.562 49.7882ZM47.8125 49.7882C46.4035 49.7882 45.0523 49.2054 44.056 48.1679C43.0597 47.1305 42.5 45.7234 42.5 44.2562V22.1281C42.5 20.6609 43.0597 19.2538 44.056 18.2164C45.0523 17.1789 46.4035 16.5961 47.8125 16.5961C49.2215 16.5961 50.5727 17.1789 51.569 18.2164C52.5653 19.2538 53.125 20.6609 53.125 22.1281V44.2562C53.125 45.7234 52.5653 47.1305 51.569 48.1679C50.5727 49.2054 49.2215 49.7882 47.8125 49.7882Z" fill="#656565"/>
<path d="M85 149.365H37.1875C32.9606 149.365 28.9068 147.616 25.918 144.504C22.9291 141.392 21.25 137.17 21.25 132.769V33.1922C21.25 31.725 21.8097 30.3179 22.806 29.2805C23.8023 28.243 25.1535 27.6602 26.5625 27.6602H132.812C134.221 27.6602 135.573 28.243 136.569 29.2805C137.565 30.3179 138.125 31.725 138.125 33.1922V94.0445C138.125 95.5117 137.565 96.9188 136.569 97.9562C135.573 98.9937 134.221 99.5765 132.812 99.5765C131.404 99.5765 130.052 98.9937 129.056 97.9562C128.06 96.9188 127.5 95.5117 127.5 94.0445V38.7242H31.875V132.769C31.875 134.236 32.4347 135.643 33.431 136.68C34.4273 137.718 35.7785 138.301 37.1875 138.301H85C86.409 138.301 87.7602 138.884 88.7565 139.921C89.7528 140.958 90.3125 142.366 90.3125 143.833C90.3125 145.3 89.7528 146.707 88.7565 147.744C87.7602 148.782 86.409 149.365 85 149.365Z" fill="#656565"/>
<path d="M111.563 160.429C104.208 160.429 97.0177 158.158 90.9022 153.903C84.7868 149.647 80.0204 143.6 77.2057 136.524C74.3911 129.448 73.6547 121.662 75.0896 114.15C76.5245 106.638 80.0662 99.7381 85.267 94.3224C90.4677 88.9067 97.0939 85.2186 104.308 83.7244C111.521 82.2303 118.998 82.9971 125.794 85.9281C132.589 88.859 138.397 93.8224 142.483 100.191C146.569 106.559 148.75 114.046 148.75 121.705C148.75 131.975 144.832 141.825 137.858 149.087C130.884 156.349 121.425 160.429 111.563 160.429ZM111.563 94.0444C106.309 94.0444 101.173 95.6667 96.8052 98.706C92.437 101.745 89.0324 106.065 87.022 111.119C85.0115 116.174 84.4855 121.735 85.5104 127.101C86.5353 132.466 89.0652 137.395 92.78 141.263C96.4948 145.132 101.228 147.766 106.38 148.833C111.533 149.9 116.874 149.353 121.728 147.259C126.581 145.166 130.73 141.62 133.648 137.072C136.567 132.523 138.125 127.175 138.125 121.705C138.125 114.369 135.326 107.333 130.345 102.146C125.364 96.9586 118.607 94.0444 111.563 94.0444Z" fill="#656565"/>
<path d="M127.5 127.237H111.562C110.154 127.237 108.802 126.654 107.806 125.616C106.81 124.579 106.25 123.172 106.25 121.705V99.5765H116.875V116.173H127.5V127.237Z" fill="#656565"/>
</svg>
