<svg width="23" height="22" viewBox="0 0 23 22" fill="none" xmlns="http://www.w3.org/2000/svg">
<path d="M20.4062 0H3.21875C1.9248 0 0.875 1.0498 0.875 2.34375V19.5312C0.875 20.8252 1.9248 21.875 3.21875 21.875H20.4062C21.7002 21.875 22.75 20.8252 22.75 19.5312V2.34375C22.75 1.0498 21.7002 0 20.4062 0ZM16.3877 17.7832C15.9727 18.2275 14.8643 18.75 13.4141 18.75C9.72754 18.75 8.92676 16.04 8.92676 14.458V10.0635H7.47656C7.31055 10.0635 7.17383 9.92676 7.17383 9.76074V7.68555C7.17383 7.46582 7.31055 7.27051 7.52051 7.19727C9.41504 6.52832 10.0059 4.87793 10.0938 3.62305C10.1182 3.28613 10.2939 3.125 10.582 3.125H12.7451C12.9111 3.125 13.0479 3.26172 13.0479 3.42773V6.94336H15.582C15.748 6.94336 15.8848 7.08008 15.8848 7.24609V9.74121C15.8848 9.90723 15.748 10.0439 15.582 10.0439H13.0381V14.1113C13.0381 15.1562 13.7607 15.7471 15.1133 15.2051C15.2598 15.1465 15.3867 15.1074 15.5039 15.1367C15.6113 15.1611 15.6797 15.2393 15.7285 15.376L16.4023 17.3389C16.4512 17.4951 16.5 17.666 16.3877 17.7832Z" fill="#656565"/>
</svg>
