<svg width="23" height="22" viewBox="0 0 23 22" fill="none" xmlns="http://www.w3.org/2000/svg">
<path d="M11.4497 4.43359C7.8999 4.43359 5.01416 7.31934 5.00928 10.8691C5.00928 12.085 5.35107 13.2715 5.99561 14.292L6.14697 14.5361L5.49756 16.9092L7.93408 16.2695L8.16846 16.4111C9.15479 16.9971 10.2876 17.3096 11.4448 17.3096H11.4497C14.9946 17.3096 17.9585 14.4238 17.9585 10.874C17.9585 9.15527 17.2163 7.53906 16.0005 6.32324C14.7798 5.10254 13.1685 4.43359 11.4497 4.43359ZM15.2339 13.6328C15.0728 14.0869 14.3013 14.4971 13.9302 14.5508C13.3149 14.6436 12.8364 14.5947 11.6108 14.0674C9.67236 13.2275 8.40283 11.2744 8.30518 11.1475C8.20752 11.0205 7.51416 10.0977 7.51416 9.14551C7.51416 8.19336 8.01221 7.72461 8.19287 7.5293C8.36865 7.33398 8.57861 7.28516 8.71045 7.28516C8.8374 7.28516 8.96924 7.28516 9.08154 7.29004C9.19873 7.29492 9.35986 7.24609 9.51611 7.62207C9.67725 8.00781 10.063 8.95996 10.1118 9.05762C10.1606 9.15527 10.1948 9.26758 10.1265 9.39453C9.75537 10.1367 9.35986 10.1074 9.56006 10.4492C10.3071 11.7334 11.0542 12.1777 12.1919 12.749C12.3872 12.8467 12.4995 12.832 12.6118 12.7002C12.7241 12.5732 13.0952 12.1338 13.2222 11.9434C13.3491 11.748 13.481 11.7822 13.6567 11.8457C13.8325 11.9092 14.7847 12.3779 14.98 12.4756C15.1753 12.5732 15.3022 12.6221 15.3511 12.7002C15.395 12.793 15.395 13.1836 15.2339 13.6328ZM20.0435 0H2.85596C1.56201 0 0.512207 1.0498 0.512207 2.34375V19.5312C0.512207 20.8252 1.56201 21.875 2.85596 21.875H20.0435C21.3374 21.875 22.3872 20.8252 22.3872 19.5312V2.34375C22.3872 1.0498 21.3374 0 20.0435 0ZM11.4448 18.6133C10.146 18.6133 8.87158 18.2861 7.74365 17.6709L3.63721 18.75L4.73584 14.7363C4.05713 13.5645 3.70068 12.2314 3.70068 10.8643C3.70557 6.59668 7.17725 3.125 11.4448 3.125C13.5151 3.125 15.4585 3.93066 16.9233 5.39551C18.3833 6.86035 19.2622 8.80371 19.2622 10.874C19.2622 15.1416 15.7124 18.6133 11.4448 18.6133Z" fill="#656565"/>
</svg>
